<mxfile host="65bd71144e">
    <diagram id="3shFqXC_znyIEeDgUfO1" name="第 1 页">
        <mxGraphModel dx="2350" dy="874" grid="1" gridSize="10" guides="1" tooltips="1" connect="1" arrows="1" fold="1" page="1" pageScale="1" pageWidth="827" pageHeight="1169" math="0" shadow="0">
            <root>
                <mxCell id="0"/>
                <mxCell id="1" parent="0"/>
                <mxCell id="4" value="类似vue模板解析" style="edgeStyle=none;html=1;entryX=0;entryY=0.5;entryDx=0;entryDy=0;fontColor=default;" edge="1" parent="1">
                    <mxGeometry relative="1" as="geometry">
                        <mxPoint x="-130" y="270" as="sourcePoint"/>
                        <mxPoint x="40" y="270" as="targetPoint"/>
                        <Array as="points">
                            <mxPoint x="30" y="270"/>
                        </Array>
                    </mxGeometry>
                </mxCell>
                <mxCell id="2" value="Javascript源代码" style="rounded=1;whiteSpace=wrap;html=1;fillColor=#f0a30a;fontColor=default;strokeColor=#BD7000;" vertex="1" parent="1">
                    <mxGeometry x="-270" y="240" width="140" height="60" as="geometry"/>
                </mxCell>
                <mxCell id="6" value="生成" style="edgeStyle=none;html=1;entryX=0;entryY=0.5;entryDx=0;entryDy=0;fontColor=default;" edge="1" parent="1" source="3" target="5">
                    <mxGeometry relative="1" as="geometry"/>
                </mxCell>
                <mxCell id="3" value="parse解析" style="shape=parallelogram;perimeter=parallelogramPerimeter;whiteSpace=wrap;html=1;fixedSize=1;" vertex="1" parent="1">
                    <mxGeometry x="30" y="240" width="120" height="60" as="geometry"/>
                </mxCell>
                <mxCell id="8" style="edgeStyle=none;html=1;exitX=1;exitY=0.5;exitDx=0;exitDy=0;fontColor=default;" edge="1" parent="1" source="5" target="7">
                    <mxGeometry relative="1" as="geometry"/>
                </mxCell>
                <mxCell id="5" value="AST抽象语法树" style="rounded=1;whiteSpace=wrap;html=1;fillColor=#f0a30a;fontColor=default;strokeColor=#BD7000;" vertex="1" parent="1">
                    <mxGeometry x="280" y="240" width="140" height="60" as="geometry"/>
                </mxCell>
                <mxCell id="10" style="edgeStyle=none;html=1;entryX=0;entryY=0.5;entryDx=0;entryDy=0;fontColor=default;" edge="1" parent="1" source="7" target="9">
                    <mxGeometry relative="1" as="geometry"/>
                </mxCell>
                <mxCell id="7" value="转换器" style="shape=parallelogram;perimeter=parallelogramPerimeter;whiteSpace=wrap;html=1;fixedSize=1;fontColor=default;" vertex="1" parent="1">
                    <mxGeometry x="520" y="240" width="120" height="60" as="geometry"/>
                </mxCell>
                <mxCell id="11" style="edgeStyle=none;html=1;fontColor=default;" edge="1" parent="1" source="9" target="12">
                    <mxGeometry relative="1" as="geometry">
                        <mxPoint x="970" y="270" as="targetPoint"/>
                    </mxGeometry>
                </mxCell>
                <mxCell id="9" value="跨平台字节码" style="rounded=1;whiteSpace=wrap;html=1;fillColor=#f0a30a;fontColor=default;strokeColor=#BD7000;" vertex="1" parent="1">
                    <mxGeometry x="720" y="240" width="140" height="60" as="geometry"/>
                </mxCell>
                <mxCell id="12" value="机器码（由于各平台的cpu架构的不一样，所以得先转换为对应的字节码）" style="rounded=0;whiteSpace=wrap;html=1;fontColor=#ffffff;fillColor=#60a917;strokeColor=#2D7600;" vertex="1" parent="1">
                    <mxGeometry x="940" y="240" width="150" height="100" as="geometry"/>
                </mxCell>
            </root>
        </mxGraphModel>
    </diagram>
</mxfile>